<?xml version="1.0" encoding="UTF-8" standalone="no"?>
<!DOCTYPE svg PUBLIC "-//W3C//DTD SVG 1.1//EN"
 "http://www.w3.org/Graphics/SVG/1.1/DTD/svg11.dtd">
<!-- Generated by graphviz version 2.26.3 (20100126.1600)
 -->
<!-- Title: G Pages: 1 -->
<svg width="418pt" height="302pt"
 viewBox="0.00 0.00 418.00 302.00" xmlns="http://www.w3.org/2000/svg" xmlns:xlink="http://www.w3.org/1999/xlink">
<g id="graph1" class="graph" transform="scale(1 1) rotate(0) translate(4 298)">
<title>G</title>
<polygon fill="white" stroke="white" points="-4,5 -4,-298 415,-298 415,5 -4,5"/>
<!-- header -->
<g id="node1" class="node"><title>header</title>
<polygon fill="none" stroke="black" points="66,-281 2,-281 2,-245 66,-245 66,-281"/>
<text text-anchor="middle" x="34" y="-259.4" font-family="Times Roman,serif" font-size="14.00">header</text>
</g>
<!-- chunk1 -->
<g id="node3" class="node"><title>chunk1</title>
<polygon fill="none" stroke="black" points="68,-192 3.55271e-14,-192 0,-156 68,-156 68,-192"/>
<text text-anchor="middle" x="34" y="-170.4" font-family="Times Roman,serif" font-size="14.00">chunk1</text>
</g>
<!-- header&#45;&gt;chunk1 -->
<g id="edge2" class="edge"><title>header&#45;&gt;chunk1</title>
<path fill="none" stroke="black" d="M34,-244.99C34,-232.766 34,-216.349 34,-202.382"/>
<polygon fill="black" stroke="black" points="37.5001,-202.289 34,-192.289 30.5001,-202.289 37.5001,-202.289"/>
</g>
<!-- text_header -->
<g id="node8" class="node"><title>text_header</title>
<polygon fill="none" stroke="black" points="404,-294 84,-294 84,-232 410,-232 410,-288 404,-294"/>
<polyline fill="none" stroke="black" points="404,-294 404,-288 "/>
<polyline fill="none" stroke="black" points="410,-288 404,-288 "/>
<text text-anchor="start" x="92" y="-277.4" font-family="Times Roman,serif" font-size="14.00">HTTP/1.1 200 OK&lt;CRLF&gt;</text>
<text text-anchor="start" x="92" y="-259.4" font-family="Times Roman,serif" font-size="14.00">Connection: close&lt;CRLF&gt;</text>
<text text-anchor="middle" x="247" y="-241.4" font-family="Times Roman,serif" font-size="14.00">Transfer&#45;Encoding: chunked&lt;CRLF&gt;&lt;CRLF&gt;</text>
</g>
<!-- header&#45;&gt;text_header -->
<g id="edge7" class="edge"><title>header&#45;&gt;text_header</title>
<path fill="none" stroke="black" d="M66.0332,-263C71.924,-263 77.8149,-263 83.7057,-263"/>
</g>
<!-- chunk2 -->
<g id="node4" class="node"><title>chunk2</title>
<polygon fill="none" stroke="black" points="68,-112 3.55271e-14,-112 0,-76 68,-76 68,-112"/>
<text text-anchor="middle" x="34" y="-90.4" font-family="Times Roman,serif" font-size="14.00">chunk2</text>
</g>
<!-- chunk1&#45;&gt;chunk2 -->
<g id="edge3" class="edge"><title>chunk1&#45;&gt;chunk2</title>
<path fill="none" stroke="black" d="M34,-155.847C34,-145.925 34,-133.417 34,-122.249"/>
<polygon fill="black" stroke="black" points="37.5001,-122.081 34,-112.081 30.5001,-122.081 37.5001,-122.081"/>
</g>
<!-- text_c1 -->
<g id="node10" class="node"><title>text_c1</title>
<polygon fill="none" stroke="black" points="222,-196 86,-196 86,-152 228,-152 228,-190 222,-196"/>
<polyline fill="none" stroke="black" points="222,-196 222,-190 "/>
<polyline fill="none" stroke="black" points="228,-190 222,-190 "/>
<text text-anchor="start" x="94" y="-179.4" font-family="Times Roman,serif" font-size="14.00">A&lt;CRLF&gt;</text>
<text text-anchor="middle" x="157" y="-161.4" font-family="Times Roman,serif" font-size="14.00">This is Ev&lt;CRLF&gt;</text>
</g>
<!-- chunk1&#45;&gt;text_c1 -->
<g id="edge9" class="edge"><title>chunk1&#45;&gt;text_c1</title>
<path fill="none" stroke="black" d="M68.1133,-174C74.0159,-174 79.9185,-174 85.8212,-174"/>
</g>
<!-- chunk3 -->
<g id="node5" class="node"><title>chunk3</title>
<polygon fill="none" stroke="black" points="68,-36 3.55271e-14,-36 0,-1.77636e-14 68,-3.55271e-15 68,-36"/>
<text text-anchor="middle" x="34" y="-14.4" font-family="Times Roman,serif" font-size="14.00">chunk3</text>
</g>
<!-- chunk2&#45;&gt;chunk3 -->
<g id="edge4" class="edge"><title>chunk2&#45;&gt;chunk3</title>
<path fill="none" stroke="black" d="M34,-75.9891C34,-67.1566 34,-56.3099 34,-46.3965"/>
<polygon fill="black" stroke="black" points="37.5001,-46.145 34,-36.145 30.5001,-46.1451 37.5001,-46.145"/>
</g>
<!-- text_c2 -->
<g id="node12" class="node"><title>text_c2</title>
<polygon fill="none" stroke="black" points="220,-116 86,-116 86,-72 226,-72 226,-110 220,-116"/>
<polyline fill="none" stroke="black" points="220,-116 220,-110 "/>
<polyline fill="none" stroke="black" points="226,-110 220,-110 "/>
<text text-anchor="start" x="93.5" y="-99.4" font-family="Times Roman,serif" font-size="14.00">9&lt;CRLF&gt;</text>
<text text-anchor="middle" x="156" y="-81.4" font-family="Times Roman,serif" font-size="14.00">evET.org.&lt;CRLF&gt;</text>
</g>
<!-- chunk2&#45;&gt;text_c2 -->
<g id="edge11" class="edge"><title>chunk2&#45;&gt;text_c2</title>
<path fill="none" stroke="black" d="M68.3125,-94C74.1355,-94 79.9585,-94 85.7815,-94"/>
</g>
<!-- text_c3 -->
<g id="node14" class="node"><title>text_c3</title>
<polygon fill="none" stroke="black" points="226,-36 86,-36 86,-1.77636e-14 232,-3.55271e-15 232,-30 226,-36"/>
<polyline fill="none" stroke="black" points="226,-36 226,-30 "/>
<polyline fill="none" stroke="black" points="232,-30 226,-30 "/>
<text text-anchor="middle" x="159" y="-14.4" font-family="Times Roman,serif" font-size="14.00">0&lt;CRLF&gt;&lt;CRLF&gt;</text>
</g>
<!-- chunk3&#45;&gt;text_c3 -->
<g id="edge13" class="edge"><title>chunk3&#45;&gt;text_c3</title>
<path fill="none" stroke="black" d="M68.1797,-18C74.0925,-18 80.0052,-18 85.918,-18"/>
</g>
</g>
</svg>
