<?xml version="1.0" encoding="UTF-8" standalone="no"?>
<!DOCTYPE svg PUBLIC "-//W3C//DTD SVG 1.1//EN"
 "http://www.w3.org/Graphics/SVG/1.1/DTD/svg11.dtd">
<!-- Generated by graphviz version 2.26.3 (20100126.1600)
 -->
<!-- Title: G Pages: 1 -->
<svg width="76pt" height="260pt"
 viewBox="0.00 0.00 76.00 260.00" xmlns="http://www.w3.org/2000/svg" xmlns:xlink="http://www.w3.org/1999/xlink">
<g id="graph1" class="graph" transform="scale(1 1) rotate(0) translate(4 256)">
<title>G</title>
<polygon fill="white" stroke="white" points="-4,5 -4,-256 73,-256 73,5 -4,5"/>
<!-- header -->
<g id="node1" class="node"><title>header</title>
<polygon fill="none" stroke="black" points="66,-252 2,-252 2,-216 66,-216 66,-252"/>
<text text-anchor="middle" x="34" y="-230.4" font-family="Times Roman,serif" font-size="14.00">header</text>
</g>
<!-- chunk1 -->
<g id="node3" class="node"><title>chunk1</title>
<polygon fill="none" stroke="black" points="68,-180 3.55271e-14,-180 0,-144 68,-144 68,-180"/>
<text text-anchor="middle" x="34" y="-158.4" font-family="Times Roman,serif" font-size="14.00">chunk1</text>
</g>
<!-- header&#45;&gt;chunk1 -->
<g id="edge2" class="edge"><title>header&#45;&gt;chunk1</title>
<path fill="none" stroke="black" d="M34,-215.831C34,-208.131 34,-198.974 34,-190.417"/>
<polygon fill="black" stroke="black" points="37.5001,-190.413 34,-180.413 30.5001,-190.413 37.5001,-190.413"/>
</g>
<!-- chunk2 -->
<g id="node4" class="node"><title>chunk2</title>
<polygon fill="none" stroke="black" points="68,-108 3.55271e-14,-108 0,-72 68,-72 68,-108"/>
<text text-anchor="middle" x="34" y="-86.4" font-family="Times Roman,serif" font-size="14.00">chunk2</text>
</g>
<!-- chunk1&#45;&gt;chunk2 -->
<g id="edge3" class="edge"><title>chunk1&#45;&gt;chunk2</title>
<path fill="none" stroke="black" d="M34,-143.831C34,-136.131 34,-126.974 34,-118.417"/>
<polygon fill="black" stroke="black" points="37.5001,-118.413 34,-108.413 30.5001,-118.413 37.5001,-118.413"/>
</g>
<!-- chunk3 -->
<g id="node5" class="node"><title>chunk3</title>
<polygon fill="none" stroke="black" points="68,-36 3.55271e-14,-36 0,-1.77636e-14 68,-3.55271e-15 68,-36"/>
<text text-anchor="middle" x="34" y="-14.4" font-family="Times Roman,serif" font-size="14.00">chunk3</text>
</g>
<!-- chunk2&#45;&gt;chunk3 -->
<g id="edge4" class="edge"><title>chunk2&#45;&gt;chunk3</title>
<path fill="none" stroke="black" d="M34,-71.8314C34,-64.131 34,-54.9743 34,-46.4166"/>
<polygon fill="black" stroke="black" points="37.5001,-46.4132 34,-36.4133 30.5001,-46.4133 37.5001,-46.4132"/>
</g>
</g>
</svg>
