<?xml version="1.0" encoding="UTF-8" standalone="no"?>
<!DOCTYPE svg PUBLIC "-//W3C//DTD SVG 1.1//EN"
 "http://www.w3.org/Graphics/SVG/1.1/DTD/svg11.dtd">
<!-- Generated by graphviz version 2.26.3 (20100126.1600)
 -->
<!-- Title: G Pages: 1 -->
<svg width="104pt" height="268pt"
 viewBox="0.00 0.00 104.00 268.00" xmlns="http://www.w3.org/2000/svg" xmlns:xlink="http://www.w3.org/1999/xlink">
<g id="graph1" class="graph" transform="scale(1 1) rotate(0) translate(4 264)">
<title>G</title>
<polygon fill="white" stroke="white" points="-4,5 -4,-264 101,-264 101,5 -4,5"/>
<!-- header -->
<g id="node1" class="node"><title>header</title>
<ellipse fill="none" stroke="black" cx="48" cy="-241" rx="45.9619" ry="18.3848"/>
<text text-anchor="middle" x="48" y="-237.4" font-family="Times Roman,serif" font-size="14.00">header</text>
</g>
<!-- chunk1 -->
<g id="node3" class="node"><title>chunk1</title>
<ellipse fill="none" stroke="black" cx="48" cy="-167" rx="48.0833" ry="18.3848"/>
<text text-anchor="middle" x="48" y="-163.4" font-family="Times Roman,serif" font-size="14.00">chunk1</text>
</g>
<!-- header&#45;&gt;chunk1 -->
<g id="edge2" class="edge"><title>header&#45;&gt;chunk1</title>
<path fill="none" stroke="black" d="M48,-222.327C48,-214.264 48,-204.648 48,-195.711"/>
<polygon fill="black" stroke="black" points="51.5001,-195.667 48,-185.667 44.5001,-195.667 51.5001,-195.667"/>
</g>
<!-- chunk2 -->
<g id="node4" class="node"><title>chunk2</title>
<ellipse fill="none" stroke="black" cx="48" cy="-93" rx="48.0833" ry="18.3848"/>
<text text-anchor="middle" x="48" y="-89.4" font-family="Times Roman,serif" font-size="14.00">chunk2</text>
</g>
<!-- chunk1&#45;&gt;chunk2 -->
<g id="edge3" class="edge"><title>chunk1&#45;&gt;chunk2</title>
<path fill="none" stroke="black" d="M48,-148.327C48,-140.264 48,-130.648 48,-121.711"/>
<polygon fill="black" stroke="black" points="51.5001,-121.667 48,-111.667 44.5001,-121.667 51.5001,-121.667"/>
</g>
<!-- chunk3 -->
<g id="node5" class="node"><title>chunk3</title>
<ellipse fill="none" stroke="black" cx="48" cy="-19" rx="48.0833" ry="18.3848"/>
<text text-anchor="middle" x="48" y="-15.4" font-family="Times Roman,serif" font-size="14.00">chunk3</text>
</g>
<!-- chunk2&#45;&gt;chunk3 -->
<g id="edge4" class="edge"><title>chunk2&#45;&gt;chunk3</title>
<path fill="none" stroke="black" d="M48,-74.3267C48,-66.2639 48,-56.6477 48,-47.7115"/>
<polygon fill="black" stroke="black" points="51.5001,-47.6673 48,-37.6674 44.5001,-47.6674 51.5001,-47.6673"/>
</g>
</g>
</svg>
